<svg xmlns="http://www.w3.org/2000/svg" viewBox="0 0 96 96"><defs><linearGradient id="b" x1="0" y1="0" x2="0" y2="1"><stop stop-color="#fffdf2"/><stop offset="1" stop-color="#d8f2ff"/></linearGradient><linearGradient id="g" x1="0" y1="0" x2="0" y2="1"><stop stop-color="#59b8ff"/><stop offset="1" stop-color="#1677d5"/></linearGradient><filter id="s"><feDropShadow dx="0" dy="4" stdDeviation="3" flood-opacity=".25"/></filter></defs><g filter="url(#s)"><rect x="8" y="8" width="80" height="80" rx="24" fill="url(#b)" stroke="#fff" stroke-width="4"/><path d="M48 27l5 2 4-4 6 4-2 5 4 4 5-1 2 7-5 2v6l5 2-2 7-5-1-4 4 2 5-6 4-4-4-5 2-2 5h-7l-2-5-5-2-4 4-6-4 2-5-4-4-5 1-2-7 5-2v-6l-5-2 2-7 5 1 4-4-2-5 6-4 4 4 5-2 2-5h7z" fill="url(#g)" stroke="#0f68bd" stroke-width="2"/><circle cx="48" cy="49" r="12" fill="#eaf7ff" stroke="#0f68bd" stroke-width="3"/></g></svg>